{"title":"Drake - Scorpion [2018] [FLAC] [24 bit 44.1 KHz]","magnet":"magnet:?xt=urn:btih:3dda6c5f904b64c5a2361d2da556143d8ac5d3fa&dn=Drake+-+Scorpion+%5B2018%5D+%5BFLAC%5D+%5B24+bit+44.1+KHz%5D&tr=udp%3A%2F%2Ftracker.leechers-paradise.org%3A6969&tr=udp%3A%2F%2Fzer0day.ch%3A1337&tr=udp%3A%2F%2Fopen.demonii.com%3A1337&tr=udp%3A%2F%2Ftracker.coppersurfer.tk%3A6969&tr=udp%3A%2F%2Fexodus.desync.com%3A6969","uploader":"OhNoCrap","categoryP":"audio","categoryS":"flac","size":"980229411","seeders":"16","leechers":"30","description":"--------------------------------------------------------------------------------\r\nDrake - Scorpion [2018] [FLAC] [24 bit 44.1 KHz]\r\n--------------------------------------------------------------------------------\r\n\r\nDR         Peak         RMS     Duration Track\r\n--------------------------------------------------------------------------------\r\nDR6       -0.29 dB    -7.96 dB      2:16 01-Survival\r\nDR4       -0.29 dB    -4.84 dB      3:59 02-Nonstop\r\nDR4       -0.29 dB    -6.98 dB      3:05 03-Elevate\r\nDR4       -0.29 dB    -8.07 dB      5:02 04-Emotionless\r\nDR6       -0.29 dB    -9.70 dB      3:19 05-God&apos;s Plan\r\nDR4       -0.29 dB    -7.39 dB      3:34 06-I&apos;m Upset\r\nDR5       -0.29 dB    -8.15 dB      3:16 07-8 Out Of 10\r\nDR4       -0.20 dB    -8.08 dB      3:25 08-Mob Ties\r\nDR5       -0.20 dB    -7.00 dB      2:44 09-Can&apos;t Take a Joke\r\nDR5       -0.29 dB    -7.59 dB      3:36 10-Sandra&apos;s Rose\r\nDR5       -0.29 dB    -7.14 dB      3:16 11-Talk Up (feat. JAY-Z)\r\nDR7       -0.29 dB    -8.74 dB      3:47 12-Is There More\r\nDR6       -0.29 dB    -8.32 dB      3:26 13-Peak\r\nDR5       -0.29 dB    -6.86 dB      4:08 14-Summer Games\r\nDR4       -0.20 dB    -5.60 dB      4:22 15-Jaded\r\nDR5       -0.29 dB    -9.30 dB      3:31 16-Nice For What\r\nDR5       -0.29 dB    -8.22 dB      3:02 17-Finesse\r\nDR5       -0.29 dB    -9.14 dB      3:27 18-Ratchet Happy Birthday\r\nDR5       -0.29 dB    -6.64 dB      2:38 19-That&apos;s How You Feel\r\nDR3       -0.20 dB    -5.79 dB      2:43 20-Blue Tint\r\nDR3       -0.20 dB    -5.67 dB      3:38 21-In My Feelings\r\nDR6       -0.24 dB    -8.62 dB      4:06 22-Don&apos;t Matter To Me (feat. Michael Jackson)\r\nDR6       -0.20 dB    -9.03 dB      4:50 23-After Dark (feat. Static Major &amp; Ty Dolla $ign)\r\nDR5       -0.29 dB    -8.10 dB      3:40 24-Final Fantasy\r\nDR6       -0.29 dB    -8.99 dB      5:10 25-March 14","last_updated":"2018-07-03T12:13:54.331Z","parsed":{"xt":"urn:btih:3dda6c5f904b64c5a2361d2da556143d8ac5d3fa","dn":"Drake - Scorpion [2018] [FLAC] [24 bit 44.1 KHz]","tr":["udp://exodus.desync.com:6969","udp://open.demonii.com:1337","udp://tracker.coppersurfer.tk:6969","udp://tracker.leechers-paradise.org:6969","udp://zer0day.ch:1337"],"infoHash":"3dda6c5f904b64c5a2361d2da556143d8ac5d3fa","infoHashBuffer":{"type":"Buffer","data":[61,218,108,95,144,75,100,197,162,54,29,45,165,86,20,61,138,197,211,250]},"name":"Drake - Scorpion [2018] [FLAC] [24 bit 44.1 KHz]","announce":["udp://exodus.desync.com:6969","udp://open.demonii.com:1337","udp://tracker.coppersurfer.tk:6969","udp://tracker.leechers-paradise.org:6969","udp://zer0day.ch:1337"],"urlList":[]}}